<mxfile host="drawio-plugin" modified="2021-08-17T23:27:29.197Z" agent="5.0 (Windows NT 6.2; Win64; x64) AppleWebKit/537.36 (KHTML, like Gecko) Chrome/89.0.4389.114 Safari/537.36" etag="77B9qt3_LDAmv_hbmmcJ" version="14.7.4" type="embed"><diagram id="z4EcsY6PdhAXduAUl1WX" name="Page-1"><mxGraphModel dx="884" dy="706" grid="1" gridSize="10" guides="1" tooltips="1" connect="1" arrows="1" fold="1" page="1" pageScale="1" pageWidth="827" pageHeight="1169" math="0" shadow="0"><root><mxCell id="0"/><mxCell id="1" parent="0"/><mxCell id="RnuTxMkqy4exYCE648mE-12" style="edgeStyle=orthogonalEdgeStyle;rounded=0;orthogonalLoop=1;jettySize=auto;html=1;dashed=1;shape=link;" parent="1" source="RnuTxMkqy4exYCE648mE-1" target="RnuTxMkqy4exYCE648mE-11" edge="1"><mxGeometry relative="1" as="geometry"/></mxCell><mxCell id="RnuTxMkqy4exYCE648mE-1" value="URI-SHORTENER&lt;br&gt;&lt;br&gt;MICROSERVICE" style="whiteSpace=wrap;html=1;aspect=fixed;" parent="1" vertex="1"><mxGeometry x="390" y="140" width="270" height="270" as="geometry"/></mxCell><mxCell id="RnuTxMkqy4exYCE648mE-8" style="edgeStyle=orthogonalEdgeStyle;rounded=0;orthogonalLoop=1;jettySize=auto;html=1;entryX=0.007;entryY=0.322;entryDx=0;entryDy=0;entryPerimeter=0;" parent="1" source="RnuTxMkqy4exYCE648mE-2" target="RnuTxMkqy4exYCE648mE-1" edge="1"><mxGeometry relative="1" as="geometry"><Array as="points"><mxPoint x="210" y="270"/><mxPoint x="210" y="227"/></Array></mxGeometry></mxCell><mxCell id="RnuTxMkqy4exYCE648mE-14" style="edgeStyle=orthogonalEdgeStyle;rounded=0;orthogonalLoop=1;jettySize=auto;html=1;entryX=-0.004;entryY=0.093;entryDx=0;entryDy=0;entryPerimeter=0;" parent="1" source="RnuTxMkqy4exYCE648mE-2" target="RnuTxMkqy4exYCE648mE-1" edge="1"><mxGeometry relative="1" as="geometry"><Array as="points"><mxPoint x="210" y="270"/><mxPoint x="210" y="165"/></Array></mxGeometry></mxCell><mxCell id="RnuTxMkqy4exYCE648mE-2" value="Actor" style="shape=umlActor;verticalLabelPosition=bottom;verticalAlign=top;html=1;outlineConnect=0;" parent="1" vertex="1"><mxGeometry x="90" y="240" width="30" height="60" as="geometry"/></mxCell><mxCell id="RnuTxMkqy4exYCE648mE-9" value="POST /do-it" style="text;html=1;align=center;verticalAlign=middle;resizable=0;points=[];autosize=1;strokeColor=none;" parent="1" vertex="1"><mxGeometry x="250" y="200" width="80" height="20" as="geometry"/></mxCell><mxCell id="RnuTxMkqy4exYCE648mE-10" value="&lt;p style=&quot;line-height: 100%&quot;&gt;&lt;/p&gt;&lt;h1 style=&quot;font-size: 17px&quot;&gt;&lt;font style=&quot;font-size: 17px&quot;&gt;{&lt;/font&gt;&lt;/h1&gt;&lt;h1 style=&quot;font-size: 17px&quot;&gt;&lt;font style=&quot;font-size: 17px&quot;&gt;&amp;nbsp; &amp;nbsp;&quot;uri&quot;: &quot;urishortened&quot;&lt;/font&gt;&lt;/h1&gt;&lt;h1 style=&quot;font-size: 17px&quot;&gt;&lt;font style=&quot;font-size: 17px&quot;&gt;}&lt;/font&gt;&lt;/h1&gt;&lt;p&gt;&lt;/p&gt;" style="text;html=1;strokeColor=none;fillColor=none;spacing=5;spacingTop=-20;whiteSpace=wrap;overflow=hidden;rounded=0;" parent="1" vertex="1"><mxGeometry x="200" y="280" width="190" height="100" as="geometry"/></mxCell><mxCell id="RnuTxMkqy4exYCE648mE-11" value="REDIS" style="shape=cylinder3;whiteSpace=wrap;html=1;boundedLbl=1;backgroundOutline=1;size=15;" parent="1" vertex="1"><mxGeometry x="800" y="160" width="60" height="80" as="geometry"/></mxCell><mxCell id="RnuTxMkqy4exYCE648mE-15" value="GET /{id}" style="text;html=1;align=center;verticalAlign=middle;resizable=0;points=[];autosize=1;strokeColor=none;" parent="1" vertex="1"><mxGeometry x="260" y="130" width="60" height="20" as="geometry"/></mxCell></root></mxGraphModel></diagram></mxfile>